# xmcd
#
# Track frame offsets:
#	150
#	19513
#	37033
#	53859
#	72025
#	90031
#	110662
#	129655
#	145701
#	161798
#	179100
#	196821
#	217689
#	233553
#	250399
#	266604
#	284766
#	302946
#	324762
#
# Disc length: 4583 seconds
#
# Revision: 1
# Processed by: cddbd v1.5.1PL0 Copyright (c) Steve Scherf et al.
# Submitted via: EasyCDDAExtractor 6.2.0.3
#
DISCID=0d11e513
DTITLE=Varios
DYEAR=1900
DGENRE=
TTITLE0=A Victory of love
TTITLE1=Big in japan
TTITLE2=Forever young
TTITLE3=Dance with me
TTITLE4=Fallen angel
TTITLE5=In the mood
TTITLE6=Be my god tonight
TTITLE7=Jerusalem
TTITLE8=Jet Set
TTITLE9=Take on me
TTITLE10=Dont cry tonight
TTITLE11=Goodbye
TTITLE12=I am loosing you
TTITLE13=Only you
TTITLE14=Still loving you
TTITLE15=Touch in the night
TTITLE16=Dreaming
TTITLE17=Every move
TTITLE18=Shine girl
EXTD=varios\n
EXTT0=varios\n
EXTT1=
EXTT2=
EXTT3=
EXTT4=
EXTT5=
EXTT6=
EXTT7=
EXTT8=
EXTT9=
EXTT10=
EXTT11=
EXTT12=
EXTT13=
EXTT14=
EXTT15=
EXTT16=
EXTT17=
EXTT18=
PLAYORDER=
